<?xml version="1.0" encoding="UTF-8" standalone="no"?>
<!DOCTYPE svg PUBLIC "-//W3C//DTD SVG 1.1//EN"
 "http://www.w3.org/Graphics/SVG/1.1/DTD/svg11.dtd">
<!-- Generated by graphviz version 2.44.1 (20200629.0846)
 -->
<!-- Title: dependency&#45;cruiser output Pages: 1 -->
<svg width="418pt" height="338pt"
 viewBox="0.00 0.00 418.00 338.00" xmlns="http://www.w3.org/2000/svg" xmlns:xlink="http://www.w3.org/1999/xlink">
<g id="graph0" class="graph" transform="scale(1 1) rotate(0) translate(4 334)">
<title>dependency&#45;cruiser output</title>
<polygon fill="white" stroke="transparent" points="-4,4 -4,-334 414,-334 414,4 -4,4"/>
<g id="clust1" class="cluster">
<title>cluster_src</title>
<path fill="#ffffff" stroke="black" stroke-width="2" d="M20,-26C20,-26 390,-26 390,-26 396,-26 402,-32 402,-38 402,-38 402,-310 402,-310 402,-316 396,-322 390,-322 390,-322 20,-322 20,-322 14,-322 8,-316 8,-310 8,-310 8,-38 8,-38 8,-32 14,-26 20,-26"/>
<text text-anchor="middle" x="205" y="-310.8" font-family="Helvetica,sans-Serif" font-weight="bold" font-size="9.00">src</text>
</g>
<g id="clust2" class="cluster">
<title>cluster_src/api</title>
<path fill="#ffffff" stroke="black" stroke-width="2" d="M28,-186C28,-186 74,-186 74,-186 80,-186 86,-192 86,-198 86,-198 86,-226 86,-226 86,-232 80,-238 74,-238 74,-238 28,-238 28,-238 22,-238 16,-232 16,-226 16,-226 16,-198 16,-198 16,-192 22,-186 28,-186"/>
<text text-anchor="middle" x="51" y="-226.8" font-family="Helvetica,sans-Serif" font-weight="bold" font-size="9.00">api</text>
</g>
<g id="clust3" class="cluster">
<title>cluster_src/components</title>
<path fill="#ffffff" stroke="black" stroke-width="2" d="M169,-60C169,-60 382,-60 382,-60 388,-60 394,-66 394,-72 394,-72 394,-284 394,-284 394,-290 388,-296 382,-296 382,-296 169,-296 169,-296 163,-296 157,-290 157,-284 157,-284 157,-72 157,-72 157,-66 163,-60 169,-60"/>
<text text-anchor="middle" x="275.5" y="-284.8" font-family="Helvetica,sans-Serif" font-weight="bold" font-size="9.00">components</text>
</g>
<g id="clust4" class="cluster">
<title>cluster_src/components/Board</title>
<path fill="#ffffff" stroke="black" stroke-width="2" d="M239,-68C239,-68 374,-68 374,-68 380,-68 386,-74 386,-80 386,-80 386,-258 386,-258 386,-264 380,-270 374,-270 374,-270 239,-270 239,-270 233,-270 227,-264 227,-258 227,-258 227,-80 227,-80 227,-74 233,-68 239,-68"/>
<text text-anchor="middle" x="306.5" y="-258.8" font-family="Helvetica,sans-Serif" font-weight="bold" font-size="9.00">Board</text>
</g>
<g id="clust5" class="cluster">
<title>cluster_src/components/Board/Cards</title>
<path fill="#ffffff" stroke="black" stroke-width="2" d="M247,-162C247,-162 366,-162 366,-162 372,-162 378,-168 378,-174 378,-174 378,-232 378,-232 378,-238 372,-244 366,-244 366,-244 247,-244 247,-244 241,-244 235,-238 235,-232 235,-232 235,-174 235,-174 235,-168 241,-162 247,-162"/>
<text text-anchor="middle" x="306.5" y="-232.8" font-family="Helvetica,sans-Serif" font-weight="bold" font-size="9.00">Cards</text>
</g>
<g id="clust6" class="cluster">
<title>cluster_src/components/Board/Timer</title>
<path fill="#ffffff" stroke="black" stroke-width="2" d="M247,-102C247,-102 293,-102 293,-102 299,-102 305,-108 305,-114 305,-114 305,-142 305,-142 305,-148 299,-154 293,-154 293,-154 247,-154 247,-154 241,-154 235,-148 235,-142 235,-142 235,-114 235,-114 235,-108 241,-102 247,-102"/>
<text text-anchor="middle" x="270" y="-142.8" font-family="Helvetica,sans-Serif" font-weight="bold" font-size="9.00">Timer</text>
</g>
<!-- api -->
<g id="node1" class="node">
<title>api</title>
<path fill="#ffffcc" stroke="red" d="M362.5,-18C362.5,-18 320.5,-18 320.5,-18 317.5,-18 314.5,-15 314.5,-12 314.5,-12 314.5,-6 314.5,-6 314.5,-3 317.5,0 320.5,0 320.5,0 362.5,0 362.5,0 365.5,0 368.5,-3 368.5,-6 368.5,-6 368.5,-12 368.5,-12 368.5,-15 365.5,-18 362.5,-18"/>
<text text-anchor="middle" x="341.5" y="-6.8" font-family="Helvetica,sans-Serif" font-size="9.00" fill="red">api</text>
</g>
<!-- src/App.css -->
<g id="node2" class="node">
<title>src/App.css</title>
<g id="a_node2"><a xlink:href="src/App.css" xlink:title="App.css">
<path fill="#ffffcc" stroke="black" d="M213,-52C213,-52 171,-52 171,-52 168,-52 165,-49 165,-46 165,-46 165,-40 165,-40 165,-37 168,-34 171,-34 171,-34 213,-34 213,-34 216,-34 219,-37 219,-40 219,-40 219,-46 219,-46 219,-49 216,-52 213,-52"/>
<text text-anchor="middle" x="192" y="-40.8" font-family="Helvetica,sans-Serif" font-size="9.00">App.css</text>
</a>
</g>
</g>
<!-- src/App.js -->
<g id="node3" class="node">
<title>src/App.js</title>
<g id="a_node3"><a xlink:href="src/App.js" xlink:title="App.js">
<path fill="#ffffcc" stroke="black" d="M142.5,-71C142.5,-71 100.5,-71 100.5,-71 97.5,-71 94.5,-68 94.5,-65 94.5,-65 94.5,-59 94.5,-59 94.5,-56 97.5,-53 100.5,-53 100.5,-53 142.5,-53 142.5,-53 145.5,-53 148.5,-56 148.5,-59 148.5,-59 148.5,-65 148.5,-65 148.5,-68 145.5,-71 142.5,-71"/>
<text text-anchor="middle" x="121.5" y="-59.8" font-family="Helvetica,sans-Serif" font-size="9.00">App.js</text>
</a>
</g>
</g>
<!-- src/App.js&#45;&gt;src/App.css -->
<g id="edge1" class="edge">
<title>src/App.js&#45;&gt;src/App.css</title>
<path fill="none" stroke="#000000" stroke-width="2" stroke-opacity="0.200000" d="M148.79,-54.71C152.09,-53.79 155.5,-52.85 158.87,-51.91"/>
<polygon fill="#000000" fill-opacity="0.200000" stroke="#000000" stroke-width="2" stroke-opacity="0.200000" points="159.68,-53.87 164.9,-50.24 158.55,-49.82 159.68,-53.87"/>
</g>
<!-- src/components/index.js -->
<g id="node4" class="node">
<title>src/components/index.js</title>
<g id="a_node4"><a xlink:href="src/components/index.js" xlink:title="index.js">
<path fill="#ffffcc" stroke="black" d="M213,-90C213,-90 171,-90 171,-90 168,-90 165,-87 165,-84 165,-84 165,-78 165,-78 165,-75 168,-72 171,-72 171,-72 213,-72 213,-72 216,-72 219,-75 219,-78 219,-78 219,-84 219,-84 219,-87 216,-90 213,-90"/>
<text text-anchor="middle" x="192" y="-78.8" font-family="Helvetica,sans-Serif" font-size="9.00">index.js</text>
</a>
</g>
</g>
<!-- src/App.js&#45;&gt;src/components/index.js -->
<g id="edge2" class="edge">
<title>src/App.js&#45;&gt;src/components/index.js</title>
<path fill="none" stroke="#000000" stroke-width="2" stroke-opacity="0.200000" d="M148.79,-69.29C152.09,-70.21 155.5,-71.15 158.87,-72.09"/>
<polygon fill="#000000" fill-opacity="0.200000" stroke="#000000" stroke-width="2" stroke-opacity="0.200000" points="158.55,-74.18 164.9,-73.76 159.68,-70.13 158.55,-74.18"/>
</g>
<!-- src/components/Board/index.js -->
<g id="node10" class="node">
<title>src/components/Board/index.js</title>
<g id="a_node10"><a xlink:href="src/components/Board/index.js" xlink:title="index.js">
<path fill="#ffffcc" stroke="black" d="M291,-94C291,-94 249,-94 249,-94 246,-94 243,-91 243,-88 243,-88 243,-82 243,-82 243,-79 246,-76 249,-76 249,-76 291,-76 291,-76 294,-76 297,-79 297,-82 297,-82 297,-88 297,-88 297,-91 294,-94 291,-94"/>
<text text-anchor="middle" x="270" y="-82.8" font-family="Helvetica,sans-Serif" font-size="9.00">index.js</text>
</a>
</g>
</g>
<!-- src/components/index.js&#45;&gt;src/components/Board/index.js -->
<g id="edge6" class="edge">
<title>src/components/index.js&#45;&gt;src/components/Board/index.js</title>
<path fill="none" stroke="#000000" stroke-width="2" stroke-opacity="0.200000" d="M219.15,-82.38C224.77,-82.67 230.76,-82.99 236.58,-83.29"/>
<polygon fill="#000000" fill-opacity="0.200000" stroke="#000000" stroke-width="2" stroke-opacity="0.200000" points="236.69,-85.4 242.8,-83.62 236.92,-81.21 236.69,-85.4"/>
</g>
<!-- src/api/index.js -->
<g id="node5" class="node">
<title>src/api/index.js</title>
<g id="a_node5"><a xlink:href="src/api/index.js" xlink:title="index.js">
<path fill="#ccffcc" stroke="black" d="M72,-212C72,-212 30,-212 30,-212 27,-212 24,-209 24,-206 24,-206 24,-200 24,-200 24,-197 27,-194 30,-194 30,-194 72,-194 72,-194 75,-194 78,-197 78,-200 78,-200 78,-206 78,-206 78,-209 75,-212 72,-212"/>
<text text-anchor="middle" x="51" y="-200.8" font-family="Helvetica,sans-Serif" font-size="9.00">index.js</text>
</a>
</g>
</g>
<!-- src/components/Board/Cards/Card.js -->
<g id="node6" class="node">
<title>src/components/Board/Cards/Card.js</title>
<g id="a_node6"><a xlink:href="src/components/Board/Cards/Card.js" xlink:title="Card.js">
<path fill="#ffffcc" stroke="black" d="M362.5,-188C362.5,-188 320.5,-188 320.5,-188 317.5,-188 314.5,-185 314.5,-182 314.5,-182 314.5,-176 314.5,-176 314.5,-173 317.5,-170 320.5,-170 320.5,-170 362.5,-170 362.5,-170 365.5,-170 368.5,-173 368.5,-176 368.5,-176 368.5,-182 368.5,-182 368.5,-185 365.5,-188 362.5,-188"/>
<text text-anchor="middle" x="341.5" y="-176.8" font-family="Helvetica,sans-Serif" font-size="9.00">Card.js</text>
</a>
</g>
</g>
<!-- src/components/Board/Cards/Cards.css -->
<g id="node7" class="node">
<title>src/components/Board/Cards/Cards.css</title>
<g id="a_node7"><a xlink:href="src/components/Board/Cards/Cards.css" xlink:title="Cards.css">
<path fill="#ffffcc" stroke="black" d="M364,-218C364,-218 319,-218 319,-218 316,-218 313,-215 313,-212 313,-212 313,-206 313,-206 313,-203 316,-200 319,-200 319,-200 364,-200 364,-200 367,-200 370,-203 370,-206 370,-206 370,-212 370,-212 370,-215 367,-218 364,-218"/>
<text text-anchor="middle" x="341.5" y="-206.8" font-family="Helvetica,sans-Serif" font-size="9.00">Cards.css</text>
</a>
</g>
</g>
<!-- src/components/Board/Cards/index.js -->
<g id="node8" class="node">
<title>src/components/Board/Cards/index.js</title>
<g id="a_node8"><a xlink:href="src/components/Board/Cards/index.js" xlink:title="index.js">
<path fill="#ffffcc" stroke="black" d="M291,-188C291,-188 249,-188 249,-188 246,-188 243,-185 243,-182 243,-182 243,-176 243,-176 243,-173 246,-170 249,-170 249,-170 291,-170 291,-170 294,-170 297,-173 297,-176 297,-176 297,-182 297,-182 297,-185 294,-188 291,-188"/>
<text text-anchor="middle" x="270" y="-176.8" font-family="Helvetica,sans-Serif" font-size="9.00">index.js</text>
</a>
</g>
</g>
<!-- src/components/Board/Cards/index.js&#45;&gt;api -->
<g id="edge5" class="edge">
<title>src/components/Board/Cards/index.js&#45;&gt;api</title>
<path fill="none" stroke="#000000" stroke-width="2" stroke-opacity="0.200000" d="M290.38,-169.98C295.82,-166.61 301.26,-162.28 305,-157 334.25,-115.67 339.6,-53.28 340.44,-24.52"/>
<polygon fill="#000000" fill-opacity="0.200000" stroke="#000000" stroke-width="2" stroke-opacity="0.200000" points="342.55,-24.33 340.57,-18.28 338.35,-24.24 342.55,-24.33"/>
</g>
<!-- src/components/Board/Cards/index.js&#45;&gt;src/components/Board/Cards/Card.js -->
<g id="edge3" class="edge">
<title>src/components/Board/Cards/index.js&#45;&gt;src/components/Board/Cards/Card.js</title>
<path fill="none" stroke="#000000" stroke-width="2" stroke-opacity="0.200000" d="M297.27,-179C300.82,-179 304.49,-179 308.13,-179"/>
<polygon fill="#000000" fill-opacity="0.200000" stroke="#000000" stroke-width="2" stroke-opacity="0.200000" points="308.19,-181.1 314.19,-179 308.19,-176.9 308.19,-181.1"/>
</g>
<!-- src/components/Board/Cards/index.js&#45;&gt;src/components/Board/Cards/Cards.css -->
<g id="edge4" class="edge">
<title>src/components/Board/Cards/index.js&#45;&gt;src/components/Board/Cards/Cards.css</title>
<path fill="none" stroke="#000000" stroke-width="2" stroke-opacity="0.200000" d="M291.85,-188C298.6,-190.91 306.18,-194.19 313.32,-197.27"/>
<polygon fill="#000000" fill-opacity="0.200000" stroke="#000000" stroke-width="2" stroke-opacity="0.200000" points="312.84,-199.35 319.18,-199.8 314.5,-195.49 312.84,-199.35"/>
</g>
<!-- src/components/Board/Timer/index.js -->
<g id="node9" class="node">
<title>src/components/Board/Timer/index.js</title>
<g id="a_node9"><a xlink:href="src/components/Board/Timer/index.js" xlink:title="index.js">
<path fill="#ccffcc" stroke="black" d="M291,-128C291,-128 249,-128 249,-128 246,-128 243,-125 243,-122 243,-122 243,-116 243,-116 243,-113 246,-110 249,-110 249,-110 291,-110 291,-110 294,-110 297,-113 297,-116 297,-116 297,-122 297,-122 297,-125 294,-128 291,-128"/>
<text text-anchor="middle" x="270" y="-116.8" font-family="Helvetica,sans-Serif" font-size="9.00">index.js</text>
</a>
</g>
</g>
<!-- src/index.css -->
<g id="node11" class="node">
<title>src/index.css</title>
<g id="a_node11"><a xlink:href="src/index.css" xlink:title="index.css">
<path fill="#ffffcc" stroke="black" d="M143,-101C143,-101 100,-101 100,-101 97,-101 94,-98 94,-95 94,-95 94,-89 94,-89 94,-86 97,-83 100,-83 100,-83 143,-83 143,-83 146,-83 149,-86 149,-89 149,-89 149,-95 149,-95 149,-98 146,-101 143,-101"/>
<text text-anchor="middle" x="121.5" y="-89.8" font-family="Helvetica,sans-Serif" font-size="9.00">index.css</text>
</a>
</g>
</g>
<!-- src/index.js -->
<g id="node12" class="node">
<title>src/index.js</title>
<g id="a_node12"><a xlink:href="src/index.js" xlink:title="index.js">
<path fill="#ffffcc" stroke="black" d="M72,-86C72,-86 30,-86 30,-86 27,-86 24,-83 24,-80 24,-80 24,-74 24,-74 24,-71 27,-68 30,-68 30,-68 72,-68 72,-68 75,-68 78,-71 78,-74 78,-74 78,-80 78,-80 78,-83 75,-86 72,-86"/>
<text text-anchor="middle" x="51" y="-74.8" font-family="Helvetica,sans-Serif" font-size="9.00">index.js</text>
</a>
</g>
</g>
<!-- src/index.js&#45;&gt;src/App.js -->
<g id="edge7" class="edge">
<title>src/index.js&#45;&gt;src/App.js</title>
<path fill="none" stroke="#000000" stroke-width="2" stroke-opacity="0.200000" d="M78.29,-71.24C81.59,-70.52 85,-69.77 88.37,-69.04"/>
<polygon fill="#000000" fill-opacity="0.200000" stroke="#000000" stroke-width="2" stroke-opacity="0.200000" points="88.98,-71.05 94.4,-67.72 88.09,-66.95 88.98,-71.05"/>
</g>
<!-- src/index.js&#45;&gt;src/index.css -->
<g id="edge8" class="edge">
<title>src/index.js&#45;&gt;src/index.css</title>
<path fill="none" stroke="#000000" stroke-width="2" stroke-opacity="0.200000" d="M78.29,-82.76C81.33,-83.42 84.47,-84.11 87.59,-84.79"/>
<polygon fill="#000000" fill-opacity="0.200000" stroke="#000000" stroke-width="2" stroke-opacity="0.200000" points="87.63,-86.95 93.94,-86.18 88.53,-82.85 87.63,-86.95"/>
</g>
</g>
</svg>
